<svg id="Layer_1" data-name="Layer 1" xmlns="http://www.w3.org/2000/svg" width="1.46in" height="1.12in" viewBox="0 0 105.18 80.97">
  <defs>
    <style>
      .cls-1 {
        fill: #fff;
      }

      .cls-2 {
        fill: #ff3811;
      }
    </style>
  </defs>
  <title>logo_white</title>
  <path class="cls-1" d="M104,36.72c-.54-1.62-1-3-1.44-4.42a1.39,1.39,0,0,0-1.63-1.13c-2.77.12-5.56,0-8.3.31S88,31,86.8,28.57a11.31,11.31,0,0,0-1.53-2,2.56,2.56,0,0,1-.45-2.83c1.21-3.09,2.26-6.22,3.47-9.34a1.57,1.57,0,0,0-.71-2.21c-1.66-1.12-3.21-2.33-4.82-3.45-2.25-1.54-1.63-1.65-3.89,0-2.48,1.85-5,3.67-7.42,5.58a2.36,2.36,0,0,1-2.48.36,33.32,33.32,0,0,0-4.54-1.46,2.83,2.83,0,0,1-2.29-2.29c-.9-3.14-1.91-6.25-2.82-9.39A1.58,1.58,0,0,0,57.69.17c-2.31,0-4.6,0-6.88-.14a2,2,0,0,0-2.34,1.66c-.85,3.05-1.87,6.05-2.74,9.11A2.65,2.65,0,0,1,43.53,13a32,32,0,0,0-4.82,1.49A2.52,2.52,0,0,1,36,14.05C33.24,12,30.44,9.9,27.71,7.77a1.44,1.44,0,0,0-2,0c-2,1.43-4,2.83-6,4.18a1.42,1.42,0,0,0-.54,2c1.24,3.22,2.42,6.47,3.52,9.72a2.72,2.72,0,0,1-.33,2c-1,1.57-2.26,3-3.3,4.54a2.55,2.55,0,0,1-2.46,1.21c-3.47-.14-6.94-.23-10.43-.26-.48,0-1.24.23-1.38.56-.65,1.57-1.13,3.2-1.75,5h1.8c5.16,0,10.35-.11,15.51.06,2,.06,3.39-.34,4.07-2.35a8.31,8.31,0,0,1,1.1-1.77c8.51-13.06,26-18.33,40.38-12.28a33.48,33.48,0,0,1,17,15.34,1.93,1.93,0,0,0,1.27,1C90.66,36.75,97.2,36.72,104,36.72Z" transform="translate(-1.28 0)"/>
  <path class="cls-2" d="M104,36.72c-6.83,0-13.34,0-19.88,0a1.86,1.86,0,0,1-1.27-1,33.5,33.5,0,0,0-57.37-3.06,7.22,7.22,0,0,0-1.1,1.77c-.68,2-2,2.44-4.06,2.35-5.16-.17-10.33,0-15.51,0H3c.59-1.77,1.07-3.42,1.75-5,.14-.34.9-.56,1.38-.56,3.47,0,7,.11,10.44.25A2.52,2.52,0,0,0,19,30.19c1.07-1.54,2.28-3,3.3-4.54a2.68,2.68,0,0,0,.34-2c-1.1-3.28-2.31-6.5-3.53-9.72a1.44,1.44,0,0,1,.54-2c2-1.35,4-2.78,6-4.18a1.46,1.46,0,0,1,2,0c2.74,2.13,5.56,4.18,8.29,6.28a2.46,2.46,0,0,0,2.71.42A32.37,32.37,0,0,1,43.47,13a2.65,2.65,0,0,0,2.2-2.18c.85-3.06,1.86-6.06,2.74-9.11A2,2,0,0,1,50.75,0c2.28.12,4.6.12,6.88.14,1,0,1.38.45,1.64,1.38.9,3.14,1.92,6.25,2.82,9.39a2.85,2.85,0,0,0,2.28,2.3,36.31,36.31,0,0,1,4.54,1.45,2.3,2.3,0,0,0,2.49-.36c2.45-1.88,4.93-3.73,7.41-5.58,2.26-1.68,1.67-1.57,3.9,0,1.6,1.13,3.18,2.33,4.82,3.4a1.57,1.57,0,0,1,.7,2.21c-1.18,3.08-2.25,6.22-3.47,9.33a2.56,2.56,0,0,0,.46,2.84,13.43,13.43,0,0,1,1.52,2c1.24,2.44,3.1,3.25,5.84,2.92s5.53-.2,8.29-.31a1.4,1.4,0,0,1,1.63,1.12C103,33.72,103.49,35.1,104,36.72Z" transform="translate(-1.28 0)"/>
  <path class="cls-1" d="M75.34,46.2c-3.32-3.28-6.68-6.59-10-9.92-.59-.59-1-.2-1.38.22-1.58,1.6-3.16,3.2-4.77,4.74-1,1-2.11,1.93-3.18,2.88.08.14.17.26.25.4A8.52,8.52,0,0,1,66.6,54.75Z" transform="translate(-1.28 0)"/>
  <path class="cls-1" d="M51,44.35c-.42-.48-.62-.79-.87-1-2.26-2.24-4.57-4.43-6.77-6.73-.79-.81-1.27-.78-2,0-2.94,3-5.87,5.89-8.89,8.78-.76.73-.59,1.17.06,1.82,2.37,2.33,4.71,4.68,7.08,7a6.2,6.2,0,0,0,.82.53C39.44,48,44.18,43.37,51,44.35Z" transform="translate(-1.28 0)"/>
  <path class="cls-1" d="M40.06,33.36C36.48,37,33,40.51,29.57,44c.25.34.59.82.9,1.21,3.64-3.62,7.14-7.06,10.86-10.74C40.93,34.12,40.48,33.72,40.06,33.36Z" transform="translate(-1.28 0)"/>
  <path class="cls-1" d="M80.08,41.57a4.13,4.13,0,0,0-.25-.45c-3.19-3.16-6.35-6.3-9.53-9.47-.54-.53-.94-.56-1.53,0s-.51,1,.06,1.6c2.85,2.77,5.64,5.58,8.46,8.38.45.45.93.87,1.58,1.49C79.29,42.58,79.63,42.16,80.08,41.57Z" transform="translate(-1.28 0)"/>
  <path class="cls-1" d="M77.83,43.82c-3.28-3.26-6.49-6.42-9.71-9.65-.53-.53-1-1-1.72-.16s-.31,1.2.26,1.73Q71,40,75.23,44.24C76.5,45.53,76.53,45.53,77.83,43.82Z" transform="translate(-1.28 0)"/>
  <path class="cls-1" d="M38.88,32.32c-1.27-1.54-1.25-1.54-2.6-.22-2.76,2.75-5.53,5.47-8.26,8.21-1.33,1.32-1.3,1.49.28,2.38C31.82,39.25,35.32,35.8,38.88,32.32Z" transform="translate(-1.28 0)"/>
  <path class="cls-1" d="M75.34,46.2c-3,2.91-5.81,5.69-8.74,8.58A8.53,8.53,0,0,0,56.22,44.54c-.08-.14-.17-.25-.25-.39,1.07-.95,2.14-1.88,3.18-2.88,1.61-1.57,3.19-3.14,4.77-4.74.42-.42.79-.81,1.38-.23C68.66,39.58,72,42.89,75.34,46.2Zm-7.7-4.54c-.59.78-1.29,1.31-1.24,1.71s.82.87,1.27,1.29c.4-.42,1.07-.84,1.1-1.29S68.21,42.41,67.64,41.66Z" transform="translate(-1.28 0)"/>
  <path class="cls-1" d="M51,44.35c-6.88-1-11.59,3.64-10.6,10.4a6.13,6.13,0,0,1-.82-.54c-2.37-2.32-4.71-4.68-7.08-7-.65-.65-.82-1.1-.06-1.82,3-2.89,6-5.83,8.89-8.78.76-.78,1.24-.81,2,0,2.2,2.3,4.51,4.49,6.77,6.73A9.08,9.08,0,0,1,51,44.35Zm-9.84-.9c-.79-.64-1.3-1.34-1.67-1.29s-.93.79-1.38,1.21c.43.42.79,1.09,1.27,1.17S40.34,44,41.19,43.45Z" transform="translate(-1.28 0)"/>
  <path class="cls-1" d="M40.06,33.36c.42.36.87.73,1.27,1.09-3.7,3.68-7.19,7.12-10.86,10.74-.31-.42-.68-.9-.9-1.21Q34.73,38.78,40.06,33.36Z" transform="translate(-1.28 0)"/>
  <path class="cls-1" d="M80.08,41.57c-.45.59-.79,1-1.21,1.57-.65-.61-1.13-1-1.58-1.48-2.82-2.81-5.61-5.61-8.46-8.38-.59-.56-.71-1-.06-1.6a.92.92,0,0,1,1.53,0c3.15,3.17,6.34,6.31,9.53,9.47A1.56,1.56,0,0,1,80.08,41.57Z" transform="translate(-1.28 0)"/>
  <path class="cls-1" d="M77.83,43.82c-1.27,1.71-1.3,1.71-2.6.42-2.85-2.83-5.7-5.69-8.57-8.5-.57-.53-1-1-.26-1.73s1.19-.37,1.72.16C71.34,37.4,74.55,40.56,77.83,43.82Z" transform="translate(-1.28 0)"/>
  <path class="cls-1" d="M38.88,32.32c-3.56,3.51-7.06,6.93-10.58,10.4-1.58-.89-1.61-1.06-.28-2.38,2.76-2.75,5.53-5.47,8.26-8.21C37.63,30.78,37.63,30.78,38.88,32.32Z" transform="translate(-1.28 0)"/>
  <path class="cls-1" d="M67.64,41.66c.54.78,1.16,1.26,1.13,1.71s-.7.87-1.1,1.29c-.45-.42-1.18-.79-1.27-1.29S67.05,42.44,67.64,41.66Z" transform="translate(-1.28 0)"/>
  <path class="cls-1" d="M41.19,43.45c-.85.53-1.36,1.15-1.81,1.07s-.84-.76-1.27-1.18c.46-.42.88-1.12,1.39-1.21S40.4,42.83,41.19,43.45Z" transform="translate(-1.28 0)"/>
  <path class="cls-1" d="M8,68.81A3.06,3.06,0,0,0,5.34,70.1a5.93,5.93,0,0,0-.94,3.58q0,4.77,3.58,4.77a11.38,11.38,0,0,0,3.65-.75v2.54A10.15,10.15,0,0,1,7.7,81a6,6,0,0,1-4.77-1.88,8,8,0,0,1-1.65-5.43,8.82,8.82,0,0,1,.81-3.9,5.83,5.83,0,0,1,2.33-2.57A6.85,6.85,0,0,1,8,66.29a9.61,9.61,0,0,1,4.18,1l-1,2.46a15.74,15.74,0,0,0-1.62-.66A4.78,4.78,0,0,0,8,68.81Zm13.39,12-.58-1.49h-.07a4.44,4.44,0,0,1-1.56,1.32,5,5,0,0,1-2.07.36,3.39,3.39,0,0,1-2.48-.9,3.46,3.46,0,0,1-.9-2.56A2.85,2.85,0,0,1,14.93,75,7,7,0,0,1,18.6,74L20.49,74V73.5a1.48,1.48,0,0,0-1.7-1.66,7.69,7.69,0,0,0-3.07.79l-1-2a8.86,8.86,0,0,1,4.18-1,5.19,5.19,0,0,1,3.37,1,3.54,3.54,0,0,1,1.17,2.91v7.28Zm-.88-5.06-1.15,0a3.67,3.67,0,0,0-1.93.46,1.47,1.47,0,0,0-.64,1.31c0,.84.48,1.26,1.45,1.26a2.3,2.3,0,0,0,1.65-.59,2.12,2.12,0,0,0,.62-1.58Zm12.13-6.07a4.78,4.78,0,0,1,1,.09l-.23,2.79a3.67,3.67,0,0,0-.88-.09,3.15,3.15,0,0,0-2.22.73,2.65,2.65,0,0,0-.79,2v5.56h-3V69.86h2.25l.44,1.83h.15a4,4,0,0,1,1.37-1.47A3.35,3.35,0,0,1,32.62,69.65ZM52.88,73.5a7,7,0,0,1-2,5.4,8.15,8.15,0,0,1-5.79,1.88H41V66.5h4.48A7.55,7.55,0,0,1,51,68.34,6.79,6.79,0,0,1,52.88,73.5Zm-3.14.08q0-4.6-4.06-4.6H44.07v9.3h1.3Q49.74,78.28,49.74,73.58ZM58,75.3a4.64,4.64,0,0,0,.53,2.45,1.93,1.93,0,0,0,1.74.83A1.89,1.89,0,0,0,62,77.76a4.69,4.69,0,0,0,.52-2.46A4.52,4.52,0,0,0,62,72.87a2.22,2.22,0,0,0-3.45,0A4.47,4.47,0,0,0,58,75.3Zm7.55,0a5.92,5.92,0,0,1-1.4,4.17A5.12,5.12,0,0,1,60.21,81a5.55,5.55,0,0,1-2.77-.68,4.57,4.57,0,0,1-1.85-2,6.6,6.6,0,0,1-.64-3,5.83,5.83,0,0,1,1.39-4.16,5.13,5.13,0,0,1,3.93-1.49,5.45,5.45,0,0,1,2.77.69,4.56,4.56,0,0,1,1.85,2A6.57,6.57,0,0,1,65.53,75.3ZM72.43,81q-5.1,0-5.1-5.59a6,6,0,0,1,1.38-4.25,5.18,5.18,0,0,1,4-1.48,7.65,7.65,0,0,1,3.4.74l-.88,2.31c-.47-.19-.91-.34-1.31-.46a4.24,4.24,0,0,0-1.21-.19c-1.55,0-2.32,1.11-2.32,3.31s.77,3.2,2.32,3.2a5.41,5.41,0,0,0,1.59-.23,5.55,5.55,0,0,0,1.47-.72v2.55a4.84,4.84,0,0,1-1.47.64A8.63,8.63,0,0,1,72.43,81ZM82.88,78.6a6.7,6.7,0,0,0,1.88-.34v2.21A6.69,6.69,0,0,1,82,81a3.35,3.35,0,0,1-2.61-.9,4,4,0,0,1-.81-2.71V72.09H77.18V70.83l1.64-1,.86-2.31h1.91v2.33h3v2.23h-3v5.27a1.17,1.17,0,0,0,.35.94A1.41,1.41,0,0,0,82.88,78.6Zm6.47-3.3a4.64,4.64,0,0,0,.53,2.45,1.92,1.92,0,0,0,1.74.83,1.86,1.86,0,0,0,1.7-.82,4.59,4.59,0,0,0,.53-2.46,4.43,4.43,0,0,0-.53-2.43,2.21,2.21,0,0,0-3.44,0A4.47,4.47,0,0,0,89.35,75.3Zm7.55,0a5.88,5.88,0,0,1-1.41,4.17A5.1,5.1,0,0,1,91.58,81a5.59,5.59,0,0,1-2.78-.68,4.61,4.61,0,0,1-1.84-2,6.6,6.6,0,0,1-.65-3,5.83,5.83,0,0,1,1.4-4.16,5.12,5.12,0,0,1,3.92-1.49,5.49,5.49,0,0,1,2.78.69,4.53,4.53,0,0,1,1.84,2A6.57,6.57,0,0,1,96.9,75.3Zm8.55-5.65a4.71,4.71,0,0,1,1,.09l-.23,2.79a3.63,3.63,0,0,0-.87-.09,3.15,3.15,0,0,0-2.23.73,2.65,2.65,0,0,0-.79,2v5.56h-3V69.86h2.25l.45,1.83h.14a4.12,4.12,0,0,1,1.37-1.47A3.37,3.37,0,0,1,105.45,69.65Z" transform="translate(-1.28 0)"/>
</svg>
